<svg data-v-423bf9ae="" xmlns="http://www.w3.org/2000/svg" viewBox="0 0 130.14083485451096 60" class="font"><!----><!----><!----><g data-v-423bf9ae="" id="30013bf3-21ae-48d2-9c44-b25910a3f91f" fill="black" transform="matrix(6.036217212677002,0,0,6.036217212677002,-3.983903169631958,-25.291748046875)"><path d="M3.15 9.98L4.62 9.98L6.68 13.09C7.28 13.97 7.49 14.13 8.32 14.13C8.82 14.13 9.23 14 9.23 14L9.23 13.59C8.69 13.51 8.57 13.45 8.22 12.98L5.87 9.76C7.29 9.37 8.12 8.36 8.12 7.03C8.12 5.26 6.86 4.20 4.44 4.20L0.66 4.20L0.66 4.63L1.78 4.82L1.78 13.38L0.66 13.57L0.66 14L4.56 14L4.56 13.57L3.15 13.38ZM3.15 9.28L3.15 4.90L4.24 4.90C6.01 4.90 6.72 5.89 6.72 7.04C6.72 8.39 5.94 9.28 4.58 9.28ZM14.73 4.80L15.82 4.62L15.82 4.19L12.42 4.19L12.42 4.62L13.30 4.80L16.76 14.08L17.79 14L21.17 4.80L22.22 4.62L22.22 4.19L18.94 4.19L18.94 4.62L20.12 4.80C20.06 5.11 19.91 5.75 19.70 6.36L17.96 11.49C17.74 12.15 17.58 12.91 17.58 12.91L17.53 12.91C17.53 12.91 17.40 12.15 17.15 11.45Z"></path></g><!----><!----></svg>